# xmcd
#
# Track frame offsets:
# 150
# 14858
# 28183
# 39660
# 45089
# 57786
# 71406
# 88274
# 98566
# 111426
#
# Disc length: 1675 seconds
#
#
# Revision: 5
# Processed by: cddbd v1.4PL0 Copyright (c) Steve Scherf et al.
# Submitted via: FreeRIP 2.00 
#
DISCID=8106890a
DTITLE=f. de andre - vol. 3
DYEAR=1968
DGENRE=Italia
TTITLE0=Fabrizio De Andrè - La canzone di Marinella
TTITLE1=Fabrizio De Andrè - Il gorilla
TTITLE2=Fabrizio De Andrè - La ballate dell'eroe
TTITLE3=Fabrizio De Andrè - S' I' fossi foco
TTITLE4=Fabrizio De Andrè - amore che vieni amore che vai
TTITLE5=Fabrizio De Andrè - La guerra di Piero
TTITLE6=Fabrizio De Andrè - Il testamento di Tito
TTITLE7=Fabrizio De Andrè - Nell'acqua della chiara fontana
TTITLE8=Fabrizio De Andrè - La ballata di Michè
TTITLE9=Fabrizio De Andrè - Il re fa rullare i tamburi
EXTD=
EXTT0=
EXTT1=
EXTT2=
EXTT3=
EXTT4=
EXTT5=
EXTT6=
EXTT7=
EXTT8=
EXTT9=
PLAYORDER=
